<svg width="19" height="17" viewBox="0 0 19 17" fill="none" xmlns="http://www.w3.org/2000/svg">
<path d="M7.17795 4.76512L9.2621 4.20667C10.2268 3.94913 11.242 4.38838 11.7147 5.26785C11.7542 5.34113 11.8388 5.37775 11.9193 5.35638L15.113 4.50063C15.1592 4.48845 15.1985 4.45842 15.2224 4.41717C15.2464 4.37592 15.2529 4.32684 15.2405 4.28078L14.7749 2.54314C14.6762 2.17459 14.435 1.86038 14.1045 1.66968C13.774 1.47898 13.3813 1.42741 13.0128 1.52634L2.58956 4.31924C2.22096 4.41783 1.90664 4.65884 1.71579 4.98923C1.52494 5.31962 1.47319 5.71231 1.57195 6.08087L2.03754 7.8185C2.04989 7.86456 2.08006 7.90381 2.1214 7.92758C2.16274 7.95135 2.21184 7.95767 2.25786 7.94516L5.45159 7.0894C5.53226 7.06809 5.58745 6.9938 5.58455 6.91041C5.55419 5.91241 6.21375 5.02441 7.17795 4.76512Z" fill="black"/>
<path d="M2.01597 9.12752C1.83157 9.17675 1.67432 9.29729 1.57889 9.46259C1.48346 9.62788 1.45768 9.82434 1.50725 10.0086L2.4847 13.6565C2.57319 13.9868 2.88192 14.2092 3.22322 14.1885C3.30842 14.1834 3.38544 14.2389 3.40765 14.3213L3.78466 15.7284C3.8875 16.1122 4.282 16.3399 4.6658 16.2371C5.04959 16.1342 5.27736 15.7398 5.17452 15.356L4.80228 13.9667C4.78977 13.9207 4.79609 13.8716 4.81986 13.8303C4.84363 13.7889 4.88288 13.7588 4.92894 13.7464L15.7 10.8603C15.746 10.848 15.7951 10.8545 15.8364 10.8784C15.8776 10.9023 15.9077 10.9417 15.9198 10.9878L16.2921 12.377C16.3949 12.7608 16.7894 12.9886 17.1732 12.8857C17.557 12.7829 17.7848 12.3884 17.6819 12.0046L17.3049 10.5976C17.2829 10.5151 17.3219 10.4285 17.3982 10.3903C17.7041 10.2376 17.8603 9.89064 17.7718 9.56037L16.7944 5.91248C16.7451 5.72807 16.6246 5.57082 16.4593 5.47539C16.294 5.37996 16.0975 5.35419 15.9132 5.40376L2.01597 9.12752Z" fill="black"/>
</svg>
