<svg width="19" height="17" viewBox="0 0 19 17" fill="none" xmlns="http://www.w3.org/2000/svg">
<path d="M7.19358 4.31346L9.27772 3.75501C10.2424 3.49747 11.2576 3.93672 11.7303 4.81619C11.7698 4.88947 11.8545 4.92609 11.9349 4.90472L15.1287 4.04897C15.1748 4.03679 15.2141 4.00676 15.2381 3.96551C15.262 3.92426 15.2685 3.87518 15.2561 3.82912L14.7905 2.09148C14.6918 1.72293 14.4506 1.40872 14.1202 1.21802C13.7897 1.02732 13.397 0.975753 13.0284 1.07468L2.60519 3.86758C2.23659 3.96616 1.92227 4.20718 1.73142 4.53757C1.54056 4.86796 1.48882 5.26065 1.58757 5.62921L2.05317 7.36684C2.06551 7.4129 2.09569 7.45215 2.13703 7.47592C2.17837 7.49969 2.22747 7.50601 2.27348 7.4935L5.46722 6.63774C5.54788 6.61643 5.60307 6.54214 5.60017 6.45875C5.56981 5.46075 6.22937 4.57275 7.19358 4.31346Z" fill="black"/>
<path d="M2.0316 8.67586C1.84719 8.72509 1.68994 8.84563 1.59451 9.01093C1.49908 9.17622 1.47331 9.37267 1.52288 9.55699L2.50032 13.2049C2.58882 13.5351 2.89755 13.7575 3.23884 13.7368C3.32404 13.7318 3.40106 13.7872 3.42327 13.8697L3.80029 15.2767C3.90313 15.6605 4.29762 15.8883 4.68142 15.7854C5.06522 15.6826 5.29298 15.2881 5.19014 14.9043L4.8179 13.5151C4.80539 13.4691 4.81172 13.42 4.83549 13.3786C4.85925 13.3373 4.8985 13.3071 4.94456 13.2948L15.7156 10.4087C15.7617 10.3963 15.8108 10.4028 15.852 10.4268C15.8933 10.4507 15.9233 10.49 15.9355 10.5361L16.3077 11.9254C16.4105 12.3092 16.805 12.5369 17.1888 12.4341C17.5726 12.3312 17.8004 11.9367 17.6976 11.5529L17.3205 10.1459C17.2986 10.0634 17.3375 9.97686 17.4138 9.93862C17.7198 9.78591 17.8759 9.43898 17.7874 9.10871L16.81 5.46082C16.7608 5.27641 16.6402 5.11916 16.4749 5.02373C16.3096 4.9283 16.1132 4.90253 15.9289 4.9521L2.0316 8.67586Z" fill="black"/>
</svg>
