<svg width="20" height="17" viewBox="0 0 20 17" fill="none" xmlns="http://www.w3.org/2000/svg">
<path d="M7.96213 4.83177L10.0463 4.27332C11.0109 4.01578 12.0261 4.45503 12.4989 5.3345C12.5384 5.40778 12.623 5.4444 12.7035 5.42303L15.8972 4.56728C15.9433 4.5551 15.9827 4.52507 16.0066 4.48382C16.0305 4.44257 16.037 4.39349 16.0247 4.34743L15.5591 2.60979C15.4603 2.24124 15.2192 1.92703 14.8887 1.73633C14.5582 1.54563 14.1655 1.49406 13.797 1.59299L3.37374 4.38589C3.00514 4.48448 2.69082 4.72549 2.49997 5.05588C2.30912 5.38627 2.25737 5.77896 2.35613 6.14752L2.82172 7.88515C2.83407 7.93121 2.86424 7.97046 2.90558 7.99423C2.94692 8.018 2.99602 8.02432 3.04204 8.01181L6.23577 7.15606C6.31644 7.13474 6.37163 7.06045 6.36873 6.97706C6.33837 5.97906 6.99793 5.09106 7.96213 4.83177Z" fill="black"/>
<path d="M2.8004 9.19417C2.61599 9.2434 2.45874 9.36394 2.36331 9.52924C2.26788 9.69453 2.24211 9.89099 2.29167 10.0753L3.26912 13.7232C3.35762 14.0535 3.66635 14.2758 4.00764 14.2551C4.09284 14.2501 4.16986 14.3056 4.19207 14.388L4.56909 15.795C4.67193 16.1788 5.06642 16.4066 5.45022 16.3037C5.83402 16.2009 6.06178 15.8064 5.95894 15.4226L5.5867 14.0334C5.57419 13.9874 5.58052 13.9383 5.60428 13.8969C5.62805 13.8556 5.6673 13.8254 5.71336 13.8131L16.4844 10.927C16.5305 10.9146 16.5795 10.9211 16.6208 10.9451C16.6621 10.969 16.6921 11.0083 16.7043 11.0544L17.0765 12.4437C17.1793 12.8275 17.5738 13.0552 17.9576 12.9524C18.3414 12.8495 18.5692 12.4551 18.4664 12.0713L18.0893 10.6642C18.0674 10.5817 18.1063 10.4952 18.1826 10.4569C18.4885 10.3042 18.6447 9.95729 18.5562 9.62702L17.5788 5.97913C17.5296 5.79472 17.409 5.63747 17.2437 5.54204C17.0784 5.44661 16.882 5.42084 16.6977 5.47041L2.8004 9.19417Z" fill="black"/>
</svg>
