<svg width="20" height="17" viewBox="0 0 20 17" fill="none" xmlns="http://www.w3.org/2000/svg">
<path d="M7.94663 4.28343L10.0308 3.72498C10.9954 3.46744 12.0106 3.90669 12.4834 4.78616C12.5229 4.85945 12.6075 4.89606 12.688 4.87469L15.8817 4.01894C15.9278 4.00676 15.9672 3.97673 15.9911 3.93548C16.015 3.89423 16.0215 3.84515 16.0092 3.79909L15.5436 2.06145C15.4448 1.6929 15.2037 1.37869 14.8732 1.18799C14.5427 0.997288 14.15 0.945723 13.7815 1.04465L3.35824 3.83755C2.98964 3.93614 2.67532 4.17715 2.48447 4.50754C2.29361 4.83793 2.24187 5.23062 2.34062 5.59918L2.80622 7.33681C2.81856 7.38287 2.84874 7.42212 2.89008 7.44589C2.93142 7.46966 2.98052 7.47598 3.02654 7.46347L6.22027 6.60772C6.30094 6.5864 6.35612 6.51211 6.35322 6.42872C6.32287 5.43073 6.98243 4.54272 7.94663 4.28343Z" fill="black"/>
<path d="M2.78465 8.64583C2.60025 8.69506 2.44299 8.81561 2.34756 8.9809C2.25213 9.14619 2.22636 9.34265 2.27593 9.52696L3.25338 13.1748C3.34187 13.5051 3.6506 13.7275 3.99189 13.7068C4.07709 13.7017 4.15411 13.7572 4.17632 13.8396L4.55334 15.2467C4.65618 15.6305 5.05068 15.8582 5.43447 15.7554C5.81827 15.6526 6.04603 15.2581 5.94319 14.8743L5.57096 13.485C5.55844 13.439 5.56477 13.3899 5.58854 13.3486C5.6123 13.3073 5.65155 13.2771 5.69762 13.2647L16.4687 10.3786C16.5147 10.3663 16.5638 10.3728 16.6051 10.3967C16.6463 10.4206 16.6763 10.46 16.6885 10.5061L17.0607 11.8953C17.1636 12.2791 17.5581 12.5069 17.9419 12.404C18.3257 12.3012 18.5534 11.9067 18.4506 11.5229L18.0736 10.1159C18.0516 10.0334 18.0906 9.94683 18.1669 9.90859C18.4728 9.75588 18.629 9.40895 18.5405 9.07868L17.563 5.43079C17.5138 5.24638 17.3933 5.08913 17.228 4.9937C17.0627 4.89827 16.8662 4.8725 16.6819 4.92207L2.78465 8.64583Z" fill="black"/>
</svg>
