<svg width="20" height="17" viewBox="0 0 20 17" fill="none" xmlns="http://www.w3.org/2000/svg">
<path d="M7.97776 4.38011L10.0619 3.82166C11.0266 3.56412 12.0418 4.00337 12.5145 4.88284C12.554 4.95612 12.6386 4.99274 12.7191 4.97137L15.9129 4.11562C15.959 4.10344 15.9983 4.07341 16.0222 4.03216C16.0462 3.99091 16.0527 3.94183 16.0403 3.89577L15.5747 2.15813C15.476 1.78958 15.2348 1.47537 14.9043 1.28467C14.5739 1.09397 14.1811 1.0424 13.8126 1.14133L3.38937 3.93423C3.02077 4.03282 2.70645 4.27383 2.5156 4.60422C2.32474 4.93461 2.273 5.3273 2.37175 5.69586L2.83735 7.43349C2.84969 7.47955 2.87987 7.5188 2.92121 7.54257C2.96255 7.56634 3.01165 7.57266 3.05766 7.56015L6.2514 6.70439C6.33206 6.68308 6.38725 6.60879 6.38435 6.5254C6.35399 5.5274 7.01355 4.6394 7.97776 4.38011Z" fill="black"/>
<path d="M2.81578 8.74251C2.63137 8.79174 2.47412 8.91228 2.37869 9.07758C2.28326 9.24287 2.25749 9.43933 2.30706 9.62364L3.2845 13.2715C3.373 13.6018 3.68173 13.8242 4.02302 13.8034C4.10822 13.7984 4.18524 13.8539 4.20745 13.9363L4.58447 15.3434C4.68731 15.7272 5.0818 15.9549 5.4656 15.8521C5.8494 15.7492 6.07716 15.3547 5.97432 14.9709L5.60208 13.5817C5.58957 13.5357 5.5959 13.4866 5.61967 13.4453C5.64343 13.4039 5.68268 13.3738 5.72874 13.3614L16.4998 10.4753C16.5458 10.463 16.5949 10.4695 16.6362 10.4934C16.6774 10.5173 16.7075 10.5567 16.7196 10.6028L17.0919 11.992C17.1947 12.3758 17.5892 12.6036 17.973 12.5007C18.3568 12.3979 18.5846 12.0034 18.4817 11.6196L18.1047 10.2125C18.0827 10.1301 18.1217 10.0435 18.198 10.0053C18.5039 9.85256 18.6601 9.50563 18.5716 9.17536L17.5942 5.52747C17.5449 5.34306 17.4244 5.18581 17.2591 5.09038C17.0938 4.99495 16.8974 4.96918 16.713 5.01875L2.81578 8.74251Z" fill="black"/>
</svg>
