<svg width="14" height="4" viewBox="0 0 14 4" fill="none" xmlns="http://www.w3.org/2000/svg">
<path d="M5.95859 1.61287H7.99068C8.93103 1.61373 9.7475 2.26078 9.96315 3.17607C9.98125 3.25237 10.0493 3.30631 10.1277 3.30649H13.2417C13.2866 3.30666 13.3297 3.28893 13.3615 3.25723C13.3934 3.22554 13.4112 3.18247 13.4112 3.13756V1.44333C13.4112 1.08398 13.2685 0.739356 13.0143 0.485316C12.7601 0.231277 12.4155 0.0886415 12.0561 0.0888063H1.89317C1.53382 0.0886415 1.18913 0.231277 0.934974 0.485316C0.680818 0.739356 0.538025 1.08398 0.538025 1.44333V3.13756C0.538025 3.18247 0.555907 3.22554 0.587722 3.25723C0.619536 3.28893 0.662663 3.30666 0.707573 3.30649H3.82154C3.90012 3.30677 3.96843 3.25263 3.98612 3.17607C4.20177 2.26078 5.01824 1.61373 5.95859 1.61287Z" fill="black"/>
</svg>
