<svg width="10" height="10" viewBox="0 0 10 10" fill="none" xmlns="http://www.w3.org/2000/svg">
<path fill-rule="evenodd" clip-rule="evenodd" d="M8.74978 0.681458C9.14177 0.681458 9.45955 0.999235 9.45955 1.39123V8.489C9.45955 8.881 9.14177 9.19878 8.74978 9.19878H1.65201C1.26001 9.19878 0.94223 8.881 0.94223 8.489V1.39123C0.94223 0.999235 1.26001 0.681458 1.65201 0.681458H8.74978ZM7.68507 7.77913C7.88107 7.77913 8.03996 7.62024 8.03996 7.42424V2.4558C8.03996 2.2598 7.88107 2.10091 7.68507 2.10091H2.71663C2.52063 2.10091 2.36174 2.2598 2.36174 2.4558V7.42424C2.36174 7.62024 2.52063 7.77913 2.71663 7.77913H7.68507Z" fill="black"/>
</svg>
