<svg width="23" height="23" viewBox="0 0 23 23" fill="none" xmlns="http://www.w3.org/2000/svg">
<path fill-rule="evenodd" clip-rule="evenodd" d="M19.5796 10.8915C19.7814 10.839 19.9959 10.8718 20.1727 10.9822C20.3492 11.0896 20.4729 11.2657 20.5143 11.4681C21.275 15.1819 19.0114 18.8455 15.3498 19.8271L11.6955 20.8063C8.03364 21.787 4.2415 19.746 3.04335 16.1494C2.98052 15.9533 2.99934 15.7401 3.09556 15.558C3.19203 15.3724 3.36232 15.2362 3.56455 15.1827L6.1983 14.477C6.35921 14.4355 6.47394 14.2935 6.48071 14.1275C6.50884 13.472 6.95772 12.91 7.59076 12.7377L11.2342 11.7615C11.8686 11.5942 12.5383 11.8564 12.8904 12.41C12.9785 12.5492 13.1469 12.615 13.3061 12.5725L17.213 11.5256C17.4141 11.4717 17.5333 11.2651 17.4795 11.0641L15.4314 3.42054C15.3551 3.13264 15.1165 2.91666 14.8224 2.86943C14.5283 2.82219 14.234 2.95257 14.0715 3.20211L13.853 3.58054C13.7821 3.70438 13.7872 3.85765 13.8662 3.97647C14.3209 4.65817 14.3504 5.53858 13.9423 6.24916L13.8367 6.4374C13.6286 6.79776 13.1678 6.92123 12.8073 6.71321L10.3658 5.30296C10.0054 5.09484 9.88196 4.63404 10.09 4.27363L10.1992 4.08441C10.6215 3.39007 11.391 2.98371 12.2026 3.02642C12.3432 3.03288 12.4758 2.96035 12.5462 2.83838L12.7929 2.41103C13.2721 1.65183 14.1551 1.2481 15.0428 1.38233C15.9305 1.51655 16.6547 2.1633 16.888 3.03023L18.9361 10.6738C18.99 10.8748 19.1966 10.9941 19.3976 10.9402L19.5796 10.8915ZM12.4272 17.6844C12.6283 17.6305 12.7475 17.4239 12.6937 17.2229L11.7184 13.5831C11.6645 13.3821 11.4579 13.2628 11.2569 13.3166L8.34507 14.0969C8.14405 14.1507 8.02475 14.3574 8.07862 14.5584L9.05389 18.1982C9.10776 18.3992 9.31438 18.5185 9.5154 18.4646L12.4272 17.6844Z" fill="black"/>
<path d="M7.845 7.86276C7.95035 7.83551 8.04855 7.78577 8.13285 7.71697L9.29136 6.75272C9.49881 6.58076 9.59875 6.31119 9.55355 6.04556C9.50835 5.77992 9.32487 5.55858 9.07223 5.46491C8.81958 5.37124 8.53616 5.41947 8.32871 5.59143L7.16782 6.55554C6.89577 6.78196 6.81794 7.16718 6.98074 7.48146C7.14355 7.79574 7.50312 7.95437 7.845 7.86276Z" fill="black"/>
<path d="M12.6308 10.8099C13.0428 10.8685 13.4243 10.5823 13.4831 10.1703L13.6964 8.67759C13.7455 8.27065 13.4604 7.89906 13.0546 7.8412C12.6488 7.78333 12.2712 8.0604 12.2046 8.46485L11.9955 9.95882C11.9375 10.3689 12.2212 10.749 12.6308 10.8099Z" fill="black"/>
<path d="M9.50956 9.74828C9.86894 9.95808 10.3304 9.83689 10.5403 9.47756L11.3012 8.17669C11.503 7.81821 11.3801 7.3641 11.025 7.1564C10.6699 6.94869 10.2138 7.06413 10.0003 7.41578L9.23957 8.71738C9.02951 9.07662 9.15038 9.53812 9.50956 9.74828Z" fill="black"/>
</svg>
