<svg width="23" height="24" viewBox="0 0 23 24" fill="none" xmlns="http://www.w3.org/2000/svg">
<path fill-rule="evenodd" clip-rule="evenodd" d="M19.8109 11.3732C20.0127 11.3207 20.2272 11.3535 20.404 11.4639C20.5805 11.5713 20.7043 11.7474 20.7457 11.9497C21.5063 15.6635 19.2428 19.3272 15.5811 20.3088L11.9268 21.288C8.26497 22.2687 4.47283 20.2277 3.27468 16.6311C3.21185 16.435 3.23067 16.2218 3.32688 16.0397C3.42335 15.8541 3.59364 15.7178 3.79587 15.6644L6.42963 14.9587C6.59053 14.9172 6.70527 14.7752 6.71204 14.6092C6.74016 13.9537 7.18904 13.3917 7.82208 13.2194L11.4655 12.2432C12.0999 12.0758 12.7696 12.3381 13.1217 12.8917C13.2098 13.0309 13.3782 13.0967 13.5374 13.0542L17.4444 12.0073C17.6454 11.9534 17.7647 11.7468 17.7108 11.5458L15.6627 3.90223C15.5865 3.61433 15.3478 3.39835 15.0537 3.35112C14.7597 3.30388 14.4654 3.43426 14.3028 3.6838L14.0843 4.06223C14.0134 4.18607 14.0185 4.33934 14.0975 4.45816C14.5522 5.13986 14.5817 6.02027 14.1736 6.73085L14.068 6.91909C13.8599 7.27944 13.3991 7.40291 13.0387 7.1949L10.5971 5.78465C10.2368 5.57653 10.1133 5.11573 10.3213 4.75532L10.4305 4.5661C10.8529 3.87176 11.6223 3.4654 12.4339 3.50811C12.5746 3.51457 12.7071 3.44204 12.7775 3.32007L13.0242 2.89272C13.5035 2.13352 14.3865 1.72979 15.2742 1.86402C16.1619 1.99824 16.886 2.64499 17.1194 3.51192L19.1675 11.1555C19.2213 11.3565 19.4279 11.4758 19.629 11.4219L19.8109 11.3732ZM12.6587 18.1661C12.8597 18.1122 12.979 17.9056 12.9252 17.7046L11.9499 14.0648C11.896 13.8638 11.6894 13.7445 11.4884 13.7983L8.57654 14.5786C8.37552 14.6324 8.25623 14.8391 8.31009 15.0401L9.28537 18.6799C9.33923 18.8809 9.54585 19.0002 9.74687 18.9463L12.6587 18.1661Z" fill="black"/>
<path d="M8.07645 8.34445C8.18179 8.3172 8.28 8.26746 8.36429 8.19866L9.52281 7.23441C9.73025 7.06245 9.8302 6.79288 9.785 6.52725C9.7398 6.26161 9.55632 6.04027 9.30367 5.9466C9.05103 5.85293 8.7676 5.90116 8.56016 6.07312L7.39926 7.03723C7.12722 7.26365 7.04938 7.64887 7.21219 7.96315C7.375 8.27743 7.73457 8.43606 8.07645 8.34445Z" fill="black"/>
<path d="M12.8624 11.2916C13.2743 11.3502 13.6559 11.0639 13.7147 10.652L13.928 9.15928C13.9771 8.75234 13.6919 8.38075 13.2862 8.32289C12.8804 8.26502 12.5027 8.54209 12.4361 8.94654L12.2271 10.4405C12.169 10.8506 12.4528 11.2307 12.8624 11.2916Z" fill="black"/>
<path d="M9.74088 10.2297C10.1003 10.4395 10.5617 10.3183 10.7716 9.95901L11.5325 8.65813C11.7343 8.29966 11.6114 7.84555 11.2563 7.63784C10.9012 7.43013 10.4451 7.54558 10.2316 7.89722L9.4709 9.19883C9.26084 9.55807 9.3817 10.0196 9.74088 10.2297Z" fill="black"/>
</svg>
