<svg width="23" height="23" viewBox="0 0 23 23" fill="none" xmlns="http://www.w3.org/2000/svg">
<path fill-rule="evenodd" clip-rule="evenodd" d="M19.5951 10.4396C19.7969 10.3871 20.0114 10.4199 20.1882 10.5303C20.3647 10.6377 20.4885 10.8138 20.5298 11.0162C21.2905 14.73 19.0269 18.3936 15.3653 19.3752L11.711 20.3544C8.04915 21.3351 4.25701 19.2941 3.05886 15.6975C2.99603 15.5014 3.01485 15.2882 3.11106 15.1061C3.20753 14.9205 3.37782 14.7842 3.58005 14.7308L6.21381 14.0251C6.37471 13.9836 6.48945 13.8416 6.49622 13.6756C6.52434 13.0201 6.97322 12.4581 7.60626 12.2858L11.2497 11.3096C11.8841 11.1423 12.5538 11.4045 12.9059 11.9581C12.994 12.0973 13.1624 12.1631 13.3216 12.1206L17.2285 11.0737C17.4296 11.0198 17.5489 10.8132 17.495 10.6122L15.4469 2.96864C15.3706 2.68074 15.132 2.46475 14.8379 2.41752C14.5438 2.37029 14.2496 2.50067 14.087 2.7502L13.8685 3.12864C13.7976 3.25248 13.8027 3.40575 13.8817 3.52457C14.3364 4.20627 14.3659 5.08667 13.9578 5.79726L13.8522 5.9855C13.6441 6.34585 13.1833 6.46932 12.8228 6.26131L10.3813 4.85105C10.0209 4.64293 9.89746 4.18214 10.1055 3.82172L10.2147 3.6325C10.637 2.93817 11.4065 2.5318 12.2181 2.57452C12.3587 2.58098 12.4913 2.50845 12.5617 2.38648L12.8084 1.95912C13.2876 1.19993 14.1706 0.7962 15.0583 0.930425C15.946 1.06465 16.6702 1.71139 16.9035 2.57833L18.9516 10.2219C19.0055 10.4229 19.2121 10.5422 19.4131 10.4883L19.5951 10.4396ZM12.4428 17.2325C12.6439 17.1786 12.7632 16.972 12.7093 16.771L11.734 13.1312C11.6802 12.9302 11.4735 12.8109 11.2725 12.8647L8.36068 13.645C8.15966 13.6988 8.04036 13.9054 8.09422 14.1065L9.0695 17.7463C9.12337 17.9473 9.32999 18.0666 9.53101 18.0127L12.4428 17.2325Z" fill="black"/>
<path d="M7.86062 7.41085C7.96597 7.38361 8.06417 7.33387 8.14847 7.26506L9.30699 6.30081C9.51443 6.12885 9.61438 5.85928 9.56918 5.59365C9.52398 5.32802 9.3405 5.10668 9.08785 5.01301C8.83521 4.91934 8.55178 4.96757 8.34434 5.13953L7.18344 6.10364C6.9114 6.33005 6.83356 6.71528 6.99637 7.02956C7.15918 7.34383 7.51875 7.50247 7.86062 7.41085Z" fill="black"/>
<path d="M12.6466 10.358C13.0585 10.4166 13.44 10.1304 13.4989 9.71845L13.7121 8.22569C13.7613 7.81874 13.4761 7.44716 13.0703 7.38929C12.6645 7.33143 12.2869 7.6085 12.2203 8.01295L12.0113 9.50691C11.9532 9.91698 12.2369 10.2971 12.6466 10.358Z" fill="black"/>
<path d="M9.52506 9.29613C9.88444 9.50593 10.3459 9.38474 10.5558 9.02542L11.3167 7.72454C11.5185 7.36606 11.3956 6.91196 11.0405 6.70425C10.6854 6.49654 10.2293 6.61198 10.0158 6.96363L9.25507 8.26524C9.04502 8.62447 9.16588 9.08597 9.52506 9.29613Z" fill="black"/>
</svg>
