<svg width="23" height="23" viewBox="0 0 23 23" fill="none" xmlns="http://www.w3.org/2000/svg">
<path fill-rule="evenodd" clip-rule="evenodd" d="M19.6108 10.9879C19.8125 10.9354 20.027 10.9682 20.2039 11.0787C20.3803 11.1861 20.5041 11.3621 20.5455 11.5645C21.3061 15.2783 19.0426 18.942 15.3809 19.9235L11.7266 20.9027C8.06477 21.8835 4.27263 19.8424 3.07448 16.2458C3.01165 16.0497 3.03047 15.8366 3.12669 15.6545C3.22316 15.4689 3.39345 15.3326 3.59568 15.2791L6.22943 14.5734C6.39034 14.5319 6.50507 14.3899 6.51184 14.2239C6.53997 13.5684 6.98885 13.0065 7.62188 12.8342L11.2653 11.8579C11.8997 11.6906 12.5694 11.9528 12.9215 12.5064C13.0097 12.6457 13.178 12.7115 13.3372 12.6689L17.2442 11.622C17.4452 11.5682 17.5645 11.3616 17.5106 11.1605L15.4625 3.51698C15.3863 3.22908 15.1476 3.01309 14.8535 2.96586C14.5595 2.91863 14.2652 3.04901 14.1026 3.29854L13.8841 3.67698C13.8132 3.80082 13.8183 3.95408 13.8973 4.07291C14.3521 4.75461 14.3815 5.63501 13.9734 6.3456L13.8678 6.53384C13.6597 6.89419 13.1989 7.01766 12.8385 6.80965L10.3969 5.39939C10.0366 5.19127 9.91309 4.73048 10.1211 4.37006L10.2303 4.18084C10.6527 3.48651 11.4221 3.08014 12.2337 3.12286C12.3744 3.12932 12.5069 3.05679 12.5773 2.93482L12.8241 2.50746C13.3033 1.74827 14.1863 1.34454 15.074 1.47876C15.9617 1.61299 16.6858 2.25973 16.9192 3.12667L18.9673 10.7702C19.0211 10.9712 19.2277 11.0905 19.4288 11.0367L19.6108 10.9879ZM12.4584 17.7808C12.6594 17.727 12.7787 17.5203 12.7249 17.3193L11.7496 13.6795C11.6957 13.4785 11.4891 13.3592 11.2881 13.4131L8.37624 14.1933C8.17522 14.2472 8.05593 14.4538 8.10979 14.6548L9.08507 18.2946C9.13893 18.4956 9.34555 18.6149 9.54658 18.561L12.4584 17.7808Z" fill="black"/>
<path d="M7.87625 7.95919C7.9816 7.93195 8.0798 7.88221 8.1641 7.8134L9.32261 6.84915C9.53006 6.67719 9.63 6.40762 9.5848 6.14199C9.5396 5.87636 9.35612 5.65502 9.10348 5.56135C8.85083 5.46768 8.56741 5.51591 8.35996 5.68787L7.19907 6.65198C6.92702 6.87839 6.84919 7.26362 7.01199 7.5779C7.1748 7.89217 7.53437 8.05081 7.87625 7.95919Z" fill="black"/>
<path d="M12.662 10.9063C13.0739 10.965 13.4554 10.6787 13.5143 10.2668L13.7275 8.77403C13.7766 8.36708 13.4915 7.9955 13.0857 7.93763C12.6799 7.87977 12.3023 8.15684 12.2357 8.56129L12.0266 10.0553C11.9686 10.4653 12.2523 10.8454 12.662 10.9063Z" fill="black"/>
<path d="M9.54044 9.84471C9.89982 10.0545 10.3612 9.93333 10.5711 9.574L11.332 8.27312C11.5339 7.91465 11.411 7.46054 11.0559 7.25283C10.7008 7.04512 10.2447 7.16057 10.0312 7.51221L9.27046 8.81382C9.0604 9.17306 9.18126 9.63456 9.54044 9.84471Z" fill="black"/>
</svg>
