<svg width="23" height="23" viewBox="0 0 23 23" fill="none" xmlns="http://www.w3.org/2000/svg">
<path fill-rule="evenodd" clip-rule="evenodd" d="M19.8266 10.9215C20.0283 10.869 20.2428 10.9018 20.4197 11.0123C20.5961 11.1197 20.7199 11.2957 20.7613 11.4981C21.5219 15.2119 19.2584 18.8756 15.5968 19.8571L11.9424 20.8363C8.28059 21.8171 4.48845 19.776 3.2903 16.1794C3.22747 15.9833 3.24629 15.7701 3.34251 15.5881C3.43898 15.4025 3.60927 15.2662 3.8115 15.2127L6.44525 14.507C6.60616 14.4655 6.72089 14.3235 6.72766 14.1575C6.75579 13.502 7.20467 12.94 7.8377 12.7677L11.4811 11.7915C12.1155 11.6242 12.7852 11.8864 13.1373 12.44C13.2255 12.5792 13.3938 12.6451 13.553 12.6025L17.46 11.5556C17.661 11.5018 17.7803 11.2951 17.7264 11.0941L15.6783 3.45057C15.6021 3.16267 15.3634 2.94669 15.0694 2.89946C14.7753 2.85222 14.481 2.9826 14.3184 3.23214L14.0999 3.61057C14.029 3.73441 14.0341 3.88768 14.1132 4.0065C14.5679 4.6882 14.5973 5.56861 14.1892 6.27919L14.0836 6.46743C13.8755 6.82778 13.4147 6.95125 13.0543 6.74324L10.6127 5.33299C10.2524 5.12487 10.1289 4.66407 10.3369 4.30366L10.4462 4.11444C10.8685 3.4201 11.638 3.01374 12.4495 3.05645C12.5902 3.06291 12.7227 2.99038 12.7931 2.86841L13.0399 2.44106C13.5191 1.68186 14.4021 1.27813 15.2898 1.41236C16.1775 1.54658 16.9017 2.19333 17.135 3.06026L19.1831 10.7038C19.2369 10.9048 19.4436 11.0241 19.6446 10.9703L19.8266 10.9215ZM12.6743 17.7144C12.8753 17.6605 12.9946 17.4539 12.9407 17.2529L11.9654 13.6131C11.9116 13.4121 11.705 13.2928 11.5039 13.3467L8.5921 14.1269C8.39108 14.1807 8.27179 14.3874 8.32565 14.5884L9.30093 18.2282C9.35479 18.4292 9.56142 18.5485 9.76244 18.4946L12.6743 17.7144Z" fill="black"/>
<path d="M8.09207 7.89279C8.19742 7.86554 8.29562 7.8158 8.37992 7.747L9.53843 6.78275C9.74588 6.61079 9.84582 6.34122 9.80062 6.07559C9.75542 5.80995 9.57194 5.58861 9.3193 5.49494C9.06665 5.40127 8.78323 5.4495 8.57578 5.62146L7.41489 6.58557C7.14284 6.81199 7.06501 7.19721 7.22782 7.51149C7.39062 7.82577 7.75019 7.9844 8.09207 7.89279Z" fill="black"/>
<path d="M12.878 10.8399C13.29 10.8986 13.6715 10.6123 13.7303 10.2004L13.9436 8.70762C13.9927 8.30068 13.7076 7.92909 13.3018 7.87123C12.896 7.81336 12.5183 8.09043 12.4518 8.49488L12.2427 9.98885C12.1847 10.3989 12.4684 10.779 12.878 10.8399Z" fill="black"/>
<path d="M9.75626 9.77806C10.1156 9.98786 10.5771 9.86667 10.787 9.50735L11.5479 8.20647C11.7497 7.848 11.6268 7.39389 11.2717 7.18618C10.9166 6.97847 10.4605 7.09392 10.247 7.44556L9.48628 8.74717C9.27622 9.10641 9.39708 9.56791 9.75626 9.77806Z" fill="black"/>
</svg>
