<svg width="23" height="23" viewBox="0 0 23 23" fill="none" xmlns="http://www.w3.org/2000/svg">
<path d="M6.53222 7.07148C6.93426 6.96375 7.17285 6.5505 7.06512 6.14846L6.57749 4.32857C6.46976 3.92653 6.05651 3.68794 5.65447 3.79567C5.25243 3.90339 5.01384 4.31664 5.12157 4.71868L5.60921 6.53858C5.71694 6.94062 6.13018 7.1792 6.53222 7.07148Z" fill="black"/>
<path d="M5.20011 9.37902C5.09239 8.97698 4.67914 8.73839 4.2771 8.84611L2.45721 9.33375C2.05517 9.44148 1.81658 9.85473 1.9243 10.2568C2.03203 10.6588 2.44528 10.8974 2.84732 10.7897L4.66721 10.302C5.06925 10.1943 5.30784 9.78106 5.20011 9.37902Z" fill="black"/>
<path d="M6.22754 16.1259L4.40765 16.6135C4.00561 16.7213 3.76702 17.1345 3.87474 17.5366C3.98247 17.9386 4.39572 18.1772 4.79776 18.0695L6.61765 17.5818C7.01969 17.4741 7.25828 17.0608 7.15055 16.6588C7.04283 16.2568 6.62958 16.0182 6.22754 16.1259Z" fill="black"/>
<path d="M12.934 1.84523C12.532 1.95295 12.2934 2.3662 12.4011 2.76824L12.8887 4.58814C12.9965 4.99018 13.4097 5.22876 13.8118 5.12104C14.2138 5.01331 14.4524 4.60006 14.3447 4.19802L13.857 2.37813C13.7493 1.97609 13.3361 1.7375 12.934 1.84523Z" fill="black"/>
<path d="M9.45794 17.991C9.0559 18.0987 8.81731 18.512 8.92504 18.914L9.41268 20.7339C9.5204 21.1359 9.93365 21.3745 10.3357 21.2668C10.7377 21.1591 10.9763 20.7458 10.8686 20.3438L10.381 18.5239C10.2732 18.1218 9.85998 17.8833 9.45794 17.991Z" fill="black"/>
<path d="M16.7377 16.0405C16.3357 16.1483 16.0971 16.5615 16.2048 16.9636L16.6925 18.7834C16.8002 19.1855 17.2134 19.4241 17.6155 19.3164C18.0175 19.2086 18.2561 18.7954 18.1484 18.3933L17.6607 16.5734C17.553 16.1714 17.1398 15.9328 16.7377 16.0405Z" fill="black"/>
<path d="M17.0424 6.9862L18.8623 6.49856C19.2643 6.39084 19.5029 5.97759 19.3952 5.57555C19.2875 5.17351 18.8742 4.93492 18.4722 5.04265L16.6523 5.53029C16.2502 5.63801 16.0116 6.05126 16.1194 6.4533C16.2271 6.85534 16.6403 7.09393 17.0424 6.9862Z" fill="black"/>
<path d="M20.4226 12.3222L18.6027 12.8098C18.2007 12.9176 17.9621 13.3308 18.0698 13.7328C18.1775 14.1349 18.5908 14.3735 18.9928 14.2657L20.8127 13.7781C21.2148 13.6704 21.4533 13.2571 21.3456 12.8551C21.2379 12.453 20.8246 12.2145 20.4226 12.3222Z" fill="black"/>
<path fill-rule="evenodd" clip-rule="evenodd" d="M14.1042 6.21303C14.5063 6.1053 14.9195 6.34389 15.0272 6.74593L16.9778 14.0255C17.0855 14.4276 16.8469 14.8408 16.4449 14.9485L9.16531 16.8991C8.76327 17.0068 8.35002 16.7682 8.24229 16.3662L6.29174 9.0866C6.18401 8.68456 6.4226 8.27131 6.82464 8.16359L14.1042 6.21303ZM14.9627 13.7851C15.1637 13.7313 15.283 13.5246 15.2291 13.3236L13.8638 8.2279C13.8099 8.02688 13.6033 7.90759 13.4022 7.96145L8.30654 9.32684C8.10552 9.3807 7.98622 9.58733 8.04009 9.78835L9.40548 14.8841C9.45934 15.0851 9.66596 15.2044 9.86698 15.1505L14.9627 13.7851Z" fill="black"/>
</svg>
