<svg width="23" height="23" viewBox="0 0 23 23" fill="none" xmlns="http://www.w3.org/2000/svg">
<path d="M6.3164 7.13764C6.71844 7.02991 6.95703 6.61667 6.8493 6.21463L6.36166 4.39473C6.25394 3.99269 5.84069 3.7541 5.43865 3.86183C5.03661 3.96956 4.79802 4.3828 4.90575 4.78484L5.39339 6.60474C5.50111 7.00678 5.91436 7.24537 6.3164 7.13764Z" fill="black"/>
<path d="M4.98405 9.44518C4.87632 9.04314 4.46308 8.80455 4.06104 8.91228L2.24114 9.39991C1.8391 9.50764 1.60051 9.92089 1.70824 10.3229C1.81597 10.725 2.22921 10.9636 2.63125 10.8558L4.45115 10.3682C4.85319 10.2605 5.09178 9.84722 4.98405 9.44518Z" fill="black"/>
<path d="M6.01172 16.1921L4.19183 16.6797C3.78979 16.7874 3.5512 17.2007 3.65892 17.6027C3.76665 18.0048 4.1799 18.2433 4.58194 18.1356L6.40183 17.648C6.80387 17.5403 7.04246 17.127 6.93473 16.725C6.82701 16.3229 6.41376 16.0843 6.01172 16.1921Z" fill="black"/>
<path d="M12.7182 1.91139C12.3162 2.01912 12.0776 2.43236 12.1853 2.8344L12.6729 4.6543C12.7807 5.05634 13.1939 5.29493 13.5959 5.1872C13.998 5.07947 14.2366 4.66623 14.1288 4.26419L13.6412 2.44429C13.5335 2.04225 13.1202 1.80366 12.7182 1.91139Z" fill="black"/>
<path d="M9.24212 18.0571C8.84008 18.1649 8.60149 18.5781 8.70922 18.9802L9.19686 20.8C9.30458 21.2021 9.71783 21.4407 10.1199 21.333C10.5219 21.2252 10.7605 20.812 10.6528 20.4099L10.1651 18.59C10.0574 18.188 9.64416 17.9494 9.24212 18.0571Z" fill="black"/>
<path d="M16.5219 16.1065C16.1199 16.2142 15.8813 16.6274 15.989 17.0295L16.4766 18.8494C16.5844 19.2514 16.9976 19.49 17.3997 19.3823C17.8017 19.2745 18.0403 18.8613 17.9326 18.4593L17.4449 16.6394C17.3372 16.2373 16.9239 15.9987 16.5219 16.1065Z" fill="black"/>
<path d="M16.8266 7.05236L18.6465 6.56472C19.0485 6.457 19.2871 6.04375 19.1794 5.64171C19.0716 5.23967 18.6584 5.00108 18.2563 5.10881L16.4365 5.59645C16.0344 5.70417 15.7958 6.11742 15.9036 6.51946C16.0113 6.9215 16.4245 7.16009 16.8266 7.05236Z" fill="black"/>
<path d="M20.2068 12.3883L18.3869 12.876C17.9849 12.9837 17.7463 13.397 17.854 13.799C17.9617 14.201 18.375 14.4396 18.777 14.3319L20.5969 13.8443C20.9989 13.7365 21.2375 13.3233 21.1298 12.9213C21.0221 12.5192 20.6088 12.2806 20.2068 12.3883Z" fill="black"/>
<path fill-rule="evenodd" clip-rule="evenodd" d="M13.8884 6.27895C14.2904 6.17122 14.7037 6.40981 14.8114 6.81185L16.762 14.0914C16.8697 14.4935 16.6311 14.9067 16.2291 15.0144L8.94949 16.965C8.54745 17.0727 8.1342 16.8341 8.02647 16.4321L6.07592 9.15252C5.96819 8.75048 6.20678 8.33723 6.60882 8.2295L13.8884 6.27895ZM14.7468 13.8509C14.9478 13.7971 15.0671 13.5904 15.0133 13.3894L13.6479 8.2937C13.594 8.09268 13.3874 7.97339 13.1864 8.02725L8.09067 9.39264C7.88965 9.4465 7.77036 9.65313 7.82422 9.85415L9.18961 14.9499C9.24348 15.1509 9.4501 15.2702 9.65112 15.2163L14.7468 13.8509Z" fill="black"/>
</svg>
