<svg width="23" height="24" viewBox="0 0 23 24" fill="none" xmlns="http://www.w3.org/2000/svg">
<path d="M6.30127 7.58954C6.70331 7.48182 6.94189 7.06857 6.83417 6.66653L6.34653 4.84664C6.2388 4.4446 5.82555 4.20601 5.42351 4.31373C5.02147 4.42146 4.78289 4.83471 4.89061 5.23675L5.37825 7.05664C5.48598 7.45868 5.89923 7.69727 6.30127 7.58954Z" fill="black"/>
<path d="M4.96891 9.89708C4.86119 9.49504 4.44794 9.25645 4.0459 9.36418L2.226 9.85182C1.82396 9.95955 1.58538 10.3728 1.6931 10.7748C1.80083 11.1769 2.21408 11.4155 2.61612 11.3077L4.43601 10.8201C4.83805 10.7124 5.07664 10.2991 4.96891 9.89708Z" fill="black"/>
<path d="M5.99634 16.644L4.17644 17.1316C3.7744 17.2393 3.53582 17.6526 3.64354 18.0546C3.75127 18.4567 4.16452 18.6952 4.56656 18.5875L6.38645 18.0999C6.78849 17.9922 7.02708 17.5789 6.91935 17.1769C6.81163 16.7748 6.39838 16.5362 5.99634 16.644Z" fill="black"/>
<path d="M12.7031 2.36329C12.301 2.47102 12.0624 2.88427 12.1702 3.28631L12.6578 5.1062C12.7655 5.50824 13.1788 5.74683 13.5808 5.6391C13.9828 5.53138 14.2214 5.11813 14.1137 4.71609L13.6261 2.8962C13.5183 2.49416 13.1051 2.25557 12.7031 2.36329Z" fill="black"/>
<path d="M9.22698 18.509C8.82494 18.6168 8.58635 19.03 8.69408 19.4321L9.18172 21.252C9.28944 21.654 9.70269 21.8926 10.1047 21.7849C10.5068 21.6771 10.7454 21.2639 10.6376 20.8618L10.15 19.0419C10.0423 18.6399 9.62902 18.4013 9.22698 18.509Z" fill="black"/>
<path d="M16.5068 16.5584C16.1047 16.6661 15.8661 17.0793 15.9739 17.4814L16.4615 19.3013C16.5692 19.7033 16.9825 19.9419 17.3845 19.8342C17.7866 19.7264 18.0251 19.3132 17.9174 18.9112L17.4298 17.0913C17.3221 16.6892 16.9088 16.4506 16.5068 16.5584Z" fill="black"/>
<path d="M16.8112 7.50402L18.6311 7.01638C19.0331 6.90866 19.2717 6.49541 19.164 6.09337C19.0563 5.69133 18.643 5.45274 18.241 5.56047L16.4211 6.04811C16.019 6.15583 15.7804 6.56908 15.8882 6.97112C15.9959 7.37316 16.4091 7.61175 16.8112 7.50402Z" fill="black"/>
<path d="M20.1917 12.8403L18.3718 13.3279C17.9697 13.4356 17.7311 13.8489 17.8389 14.2509C17.9466 14.6529 18.3598 14.8915 18.7619 14.7838L20.5818 14.2962C20.9838 14.1884 21.2224 13.7752 21.1147 13.3732C21.0069 12.9711 20.5937 12.7325 20.1917 12.8403Z" fill="black"/>
<path fill-rule="evenodd" clip-rule="evenodd" d="M13.8733 6.73085C14.2753 6.62313 14.6885 6.86171 14.7963 7.26375L16.7468 14.5433C16.8546 14.9454 16.616 15.3586 16.2139 15.4663L8.93435 17.4169C8.53231 17.5246 8.11906 17.286 8.01134 16.884L6.06078 9.60442C5.95305 9.20238 6.19164 8.78914 6.59368 8.68141L13.8733 6.73085ZM14.7317 14.3029C14.9328 14.249 15.052 14.0424 14.9982 13.8414L13.6328 8.74567C13.5789 8.54465 13.3723 8.42535 13.1713 8.47922L8.07558 9.84461C7.87456 9.89847 7.75527 10.1051 7.80913 10.3061L9.17452 15.4018C9.22839 15.6028 9.43501 15.7221 9.63603 15.6683L14.7317 14.3029Z" fill="black"/>
</svg>
