<svg width="23" height="23" viewBox="0 0 23 23" fill="none" xmlns="http://www.w3.org/2000/svg">
<path d="M6.33203 6.68598C6.73407 6.57825 6.97266 6.16501 6.86493 5.76297L6.37729 3.94307C6.26956 3.54103 5.85632 3.30244 5.45428 3.41017C5.05224 3.5179 4.81365 3.93114 4.92137 4.33318L5.40901 6.15308C5.51674 6.55512 5.92999 6.79371 6.33203 6.68598Z" fill="black"/>
<path d="M4.99967 8.99352C4.89195 8.59148 4.4787 8.35289 4.07666 8.46062L2.25677 8.94825C1.85473 9.05598 1.61614 9.46923 1.72386 9.87127C1.83159 10.2733 2.24484 10.5119 2.64688 10.4042L4.46677 9.91653C4.86881 9.8088 5.1074 9.39556 4.99967 8.99352Z" fill="black"/>
<path d="M6.02759 15.7404L4.20769 16.228C3.80565 16.3358 3.56707 16.749 3.67479 17.1511C3.78252 17.5531 4.19577 17.7917 4.59781 17.684L6.4177 17.1963C6.81974 17.0886 7.05833 16.6753 6.9506 16.2733C6.84288 15.8713 6.42963 15.6327 6.02759 15.7404Z" fill="black"/>
<path d="M12.7338 1.45973C12.3318 1.56746 12.0932 1.9807 12.2009 2.38274L12.6886 4.20264C12.7963 4.60468 13.2095 4.84327 13.6116 4.73554C14.0136 4.62781 14.2522 4.21457 14.1445 3.81253L13.6568 1.99263C13.5491 1.59059 13.1359 1.352 12.7338 1.45973Z" fill="black"/>
<path d="M9.25774 17.6055C8.8557 17.7132 8.61711 18.1265 8.72484 18.5285L9.21248 20.3484C9.32021 20.7504 9.73345 20.989 10.1355 20.8813C10.5375 20.7736 10.7761 20.3603 10.6684 19.9583L10.1808 18.1384C10.073 17.7363 9.65978 17.4978 9.25774 17.6055Z" fill="black"/>
<path d="M16.5375 15.6548C16.1355 15.7625 15.8969 16.1758 16.0046 16.5778L16.4923 18.3977C16.6 18.7997 17.0132 19.0383 17.4153 18.9306C17.8173 18.8229 18.0559 18.4096 17.9482 18.0076L17.4605 16.1877C17.3528 15.7857 16.9396 15.5471 16.5375 15.6548Z" fill="black"/>
<path d="M16.8419 6.6007L18.6618 6.11306C19.0639 6.00534 19.3025 5.59209 19.1947 5.19005C19.087 4.78801 18.6738 4.54942 18.2717 4.65715L16.4518 5.14479C16.0498 5.25251 15.8112 5.66576 15.9189 6.0678C16.0267 6.46984 16.4399 6.70843 16.8419 6.6007Z" fill="black"/>
<path d="M20.2224 11.9367L18.4025 12.4243C18.0005 12.5321 17.7619 12.9453 17.8696 13.3473C17.9773 13.7494 18.3906 13.988 18.7926 13.8802L20.6125 13.3926C21.0146 13.2849 21.2532 12.8716 21.1454 12.4696C21.0377 12.0676 20.6245 11.829 20.2224 11.9367Z" fill="black"/>
<path fill-rule="evenodd" clip-rule="evenodd" d="M13.904 5.82729C14.3061 5.71956 14.7193 5.95815 14.827 6.36019L16.7776 13.6398C16.8853 14.0418 16.6467 14.4551 16.2447 14.5628L8.96511 16.5133C8.56307 16.6211 8.14982 16.3825 8.0421 15.9804L6.09154 8.70086C5.98381 8.29882 6.2224 7.88557 6.62444 7.77784L13.904 5.82729ZM14.7624 13.3992C14.9634 13.3454 15.0827 13.1388 15.0288 12.9377L13.6634 7.84204C13.6096 7.64102 13.4029 7.52172 13.2019 7.57559L8.10622 8.94098C7.9052 8.99484 7.78591 9.20146 7.83977 9.40248L9.20516 14.4982C9.25903 14.6992 9.46565 14.8185 9.66667 14.7646L14.7624 13.3992Z" fill="black"/>
</svg>
